<?xml version="1.0" encoding="UTF-8" standalone="no"?>
<!DOCTYPE svg PUBLIC "-//W3C//DTD SVG 1.1//EN"
 "http://www.w3.org/Graphics/SVG/1.1/DTD/svg11.dtd">
<!-- Generated by graphviz version 14.1.5 (20260411.2331)
 -->
<!-- Title: reactesp::Event::Event Pages: 1 -->
<svg width="445pt" height="407pt"
 viewBox="0.00 0.00 445.00 407.00" xmlns="http://www.w3.org/2000/svg" xmlns:xlink="http://www.w3.org/1999/xlink">

<svg id="main" version="1.1" xmlns="http://www.w3.org/2000/svg" xmlns:xlink="http://www.w3.org/1999/xlink" xml:space="preserve">

<style type="text/css"><![CDATA[
.node, .edge {opacity: 0.7;}
.node.selected, .edge.selected {opacity: 1;}
.edge:hover path { stroke: red; }
.edge:hover polygon { stroke: red; fill: red; }
]]></style>
<script type="application/ecmascript" xlink:href="svg.min.js"/>
<svg id="graph" class="graph">
<g id="graph0" class="graph" transform="scale(1 1) rotate(0) translate(4 402.88)">
<title>reactesp::Event::Event</title>
<!-- Node1 -->
<g id="Node000001" class="node">
<title>Node1</title>
<g id="a_Node000001"><a xlink:title="Construct a new Event object.">
<polygon fill="#999999" stroke="#666666" points="437.25,-256.88 320.75,-256.88 320.75,-237.62 437.25,-237.62 437.25,-256.88"/>
<text xml:space="preserve" text-anchor="middle" x="379" y="-243.38" font-family="Helvetica,sans-Serif" font-size="10.00">reactesp::Event::Event</text>
</a>
</g>
</g>
<!-- Node2 -->
<g id="Node000002" class="node">
<title>Node2</title>
<g id="a_Node000002"><a xlink:href="classreactesp_1_1_event.html#aea69ea2e29b9869fc822615740fc0d3c" target="_top" xlink:title=" ">
<polygon fill="white" stroke="#666666" points="276.88,-398.88 160.38,-398.88 160.38,-379.62 276.88,-379.62 276.88,-398.88"/>
<text xml:space="preserve" text-anchor="middle" x="218.62" y="-385.38" font-family="Helvetica,sans-Serif" font-size="10.00">reactesp::Event::Event</text>
</a>
</g>
</g>
<!-- Node1&#45;&gt;Node2 -->
<g id="edge1_Node000001_Node000002" class="edge">
<title>Node1&#45;&gt;Node2</title>
<g id="a_edge1_Node000001_Node000002"><a xlink:title=" ">
<path fill="none" stroke="#63b8ff" d="M368.44,-267.06C354.12,-294.62 324.47,-344.2 284.75,-371.25 280.1,-374.42 274.9,-377.03 269.52,-379.19"/>
<polygon fill="#63b8ff" stroke="#63b8ff" points="371.44,-268.9 372.8,-258.39 365.18,-265.76 371.44,-268.9"/>
</a>
</g>
</g>
<!-- Node3 -->
<g id="Node000003" class="node">
<title>Node3</title>
<g id="a_Node000003"><a xlink:href="classreactesp_1_1_event.html#a8facb189911b7e37ca488a069058f610" target="_top" xlink:title=" ">
<polygon fill="white" stroke="#666666" points="276.88,-361.88 160.38,-361.88 160.38,-342.62 276.88,-342.62 276.88,-361.88"/>
<text xml:space="preserve" text-anchor="middle" x="218.62" y="-348.38" font-family="Helvetica,sans-Serif" font-size="10.00">reactesp::Event::Event</text>
</a>
</g>
</g>
<!-- Node1&#45;&gt;Node3 -->
<g id="edge2_Node000001_Node000003" class="edge">
<title>Node1&#45;&gt;Node3</title>
<g id="a_edge2_Node000001_Node000003"><a xlink:title=" ">
<path fill="none" stroke="#63b8ff" d="M362.48,-265.96C345.36,-285.45 316.06,-315.56 284.75,-333.25 278.5,-336.78 271.52,-339.71 264.53,-342.13"/>
<polygon fill="#63b8ff" stroke="#63b8ff" points="365.03,-268.37 368.88,-258.5 359.72,-263.81 365.03,-268.37"/>
</a>
</g>
</g>
<!-- Node4 -->
<g id="Node000004" class="node">
<title>Node4</title>
<g id="a_Node000004"><a xlink:href="classreactesp_1_1_i_s_r_event.html#ac98fc2064e473ca5b0a402ddd36e9683" target="_top" xlink:title="Construct a new ISREvent object.">
<polygon fill="white" stroke="#666666" points="269.75,-324.5 167.5,-324.5 167.5,-294 269.75,-294 269.75,-324.5"/>
<text xml:space="preserve" text-anchor="start" x="175.5" y="-311" font-family="Helvetica,sans-Serif" font-size="10.00">reactesp::ISREvent</text>
<text xml:space="preserve" text-anchor="middle" x="218.62" y="-299.75" font-family="Helvetica,sans-Serif" font-size="10.00">::ISREvent</text>
</a>
</g>
</g>
<!-- Node1&#45;&gt;Node4 -->
<g id="edge3_Node000001_Node000004" class="edge">
<title>Node1&#45;&gt;Node4</title>
<g id="a_edge3_Node000001_Node000004"><a xlink:title=" ">
<path fill="none" stroke="#63b8ff" d="M343.6,-261.59C326.05,-268.83 304.32,-277.66 284.75,-285.25 277.67,-288 270.13,-290.84 262.79,-293.58"/>
<polygon fill="#63b8ff" stroke="#63b8ff" points="344.64,-264.95 352.54,-257.9 341.96,-258.48 344.64,-264.95"/>
</a>
</g>
</g>
<!-- Node5 -->
<g id="Node000005" class="node">
<title>Node5</title>
<g id="a_Node000005"><a xlink:href="classreactesp_1_1_event.html#a51eb30730b8b7cefae0f16436069b345" target="_top" xlink:title=" ">
<polygon fill="white" stroke="#666666" points="284.75,-275.88 152.5,-275.88 152.5,-256.62 284.75,-256.62 284.75,-275.88"/>
<text xml:space="preserve" text-anchor="middle" x="218.62" y="-262.38" font-family="Helvetica,sans-Serif" font-size="10.00">reactesp::Event::operator=</text>
</a>
</g>
</g>
<!-- Node1&#45;&gt;Node5 -->
<g id="edge4_Node000001_Node000005" class="edge">
<title>Node1&#45;&gt;Node5</title>
<g id="a_edge4_Node000001_Node000005"><a xlink:title=" ">
<path fill="none" stroke="#63b8ff" d="M309.16,-255.51C301.13,-256.47 292.96,-257.45 284.99,-258.41"/>
<polygon fill="#63b8ff" stroke="#63b8ff" points="309.36,-259.01 318.87,-254.34 308.53,-252.06 309.36,-259.01"/>
</a>
</g>
</g>
<!-- Node6 -->
<g id="Node000006" class="node">
<title>Node6</title>
<g id="a_Node000006"><a xlink:href="classreactesp_1_1_event.html#a0990c89f0b6bf4b15dc70394ca8b6db4" target="_top" xlink:title=" ">
<polygon fill="white" stroke="#666666" points="284.75,-238.88 152.5,-238.88 152.5,-219.62 284.75,-219.62 284.75,-238.88"/>
<text xml:space="preserve" text-anchor="middle" x="218.62" y="-225.38" font-family="Helvetica,sans-Serif" font-size="10.00">reactesp::Event::operator=</text>
</a>
</g>
</g>
<!-- Node1&#45;&gt;Node6 -->
<g id="edge5_Node000001_Node000006" class="edge">
<title>Node1&#45;&gt;Node6</title>
<g id="a_edge5_Node000001_Node000006"><a xlink:title=" ">
<path fill="none" stroke="#63b8ff" d="M309.16,-239.43C301.13,-238.51 292.96,-237.59 284.99,-236.68"/>
<polygon fill="#63b8ff" stroke="#63b8ff" points="308.54,-242.88 318.87,-240.53 309.33,-235.92 308.54,-242.88"/>
</a>
</g>
</g>
<!-- Node7 -->
<g id="Node000007" class="node">
<title>Node7</title>
<g id="a_Node000007"><a xlink:href="classreactesp_1_1_timed_event.html#ae85b8b2e688c819cdfd8ff11a6b4fa75" target="_top" xlink:title="Construct a new Timed Event object.">
<polygon fill="white" stroke="#666666" points="274.62,-201.5 162.62,-201.5 162.62,-171 274.62,-171 274.62,-201.5"/>
<text xml:space="preserve" text-anchor="start" x="170.62" y="-188" font-family="Helvetica,sans-Serif" font-size="10.00">reactesp::TimedEvent</text>
<text xml:space="preserve" text-anchor="middle" x="218.62" y="-176.75" font-family="Helvetica,sans-Serif" font-size="10.00">::TimedEvent</text>
</a>
</g>
</g>
<!-- Node1&#45;&gt;Node7 -->
<g id="edge6_Node000001_Node000007" class="edge">
<title>Node1&#45;&gt;Node7</title>
<g id="a_edge6_Node000001_Node000007"><a xlink:title=" ">
<path fill="none" stroke="#63b8ff" d="M342.84,-233.06C325.41,-226.09 304.01,-217.62 284.75,-210.25 277.66,-207.54 270.12,-204.71 262.77,-201.98"/>
<polygon fill="#63b8ff" stroke="#63b8ff" points="341.14,-236.15 351.73,-236.63 343.75,-229.65 341.14,-236.15"/>
</a>
</g>
</g>
<!-- Node13 -->
<g id="Node000013" class="node">
<title>Node13</title>
<g id="a_Node000013"><a xlink:href="classreactesp_1_1_timed_event.html#a27c05e3670a56cd3732655dea5c9ea5a" target="_top" xlink:title="Construct a new Timed Event object.">
<polygon fill="white" stroke="#666666" points="274.62,-152.5 162.62,-152.5 162.62,-122 274.62,-122 274.62,-152.5"/>
<text xml:space="preserve" text-anchor="start" x="170.62" y="-139" font-family="Helvetica,sans-Serif" font-size="10.00">reactesp::TimedEvent</text>
<text xml:space="preserve" text-anchor="middle" x="218.62" y="-127.75" font-family="Helvetica,sans-Serif" font-size="10.00">::TimedEvent</text>
</a>
</g>
</g>
<!-- Node1&#45;&gt;Node13 -->
<g id="edge12_Node000001_Node000013" class="edge">
<title>Node1&#45;&gt;Node13</title>
<g id="a_edge12_Node000001_Node000013"><a xlink:title=" ">
<path fill="none" stroke="#63b8ff" d="M361.87,-228.97C344.42,-210.12 315.03,-180.93 284.75,-162.25 279.18,-158.82 273.07,-155.72 266.88,-152.97"/>
<polygon fill="#63b8ff" stroke="#63b8ff" points="359.09,-231.12 368.4,-236.18 364.28,-226.42 359.09,-231.12"/>
</a>
</g>
</g>
<!-- Node14 -->
<g id="Node000014" class="node">
<title>Node14</title>
<g id="a_Node000014"><a xlink:href="classreactesp_1_1_untimed_event.html#a2774cf2317e11a237ddb179f35d0c113" target="_top" xlink:title=" ">
<polygon fill="white" stroke="#666666" points="279.5,-79.5 157.75,-79.5 157.75,-49 279.5,-49 279.5,-79.5"/>
<text xml:space="preserve" text-anchor="start" x="165.75" y="-66" font-family="Helvetica,sans-Serif" font-size="10.00">reactesp::UntimedEvent</text>
<text xml:space="preserve" text-anchor="middle" x="218.62" y="-54.75" font-family="Helvetica,sans-Serif" font-size="10.00">::UntimedEvent</text>
</a>
</g>
</g>
<!-- Node1&#45;&gt;Node14 -->
<g id="edge13_Node000001_Node000014" class="edge">
<title>Node1&#45;&gt;Node14</title>
<g id="a_edge13_Node000001_Node000014"><a xlink:title=" ">
<path fill="none" stroke="#63b8ff" d="M366.93,-227.41C351,-199.91 319.67,-149.48 284.75,-113.25 272.58,-100.62 256.92,-88.72 244,-79.82"/>
<polygon fill="#63b8ff" stroke="#63b8ff" points="363.87,-229.11 371.86,-236.07 369.95,-225.64 363.87,-229.11"/>
</a>
</g>
</g>
<!-- Node8 -->
<g id="Node000008" class="node">
<title>Node8</title>
<g id="a_Node000008"><a xlink:href="classreactesp_1_1_delay_event.html#a0ea813021513248b351f55722d7b20f0" target="_top" xlink:title="Construct a new Delay Event object.">
<polygon fill="white" stroke="#666666" points="113.5,-324.5 3,-324.5 3,-294 113.5,-294 113.5,-324.5"/>
<text xml:space="preserve" text-anchor="start" x="11" y="-311" font-family="Helvetica,sans-Serif" font-size="10.00">reactesp::DelayEvent</text>
<text xml:space="preserve" text-anchor="middle" x="58.25" y="-299.75" font-family="Helvetica,sans-Serif" font-size="10.00">::DelayEvent</text>
</a>
</g>
</g>
<!-- Node7&#45;&gt;Node8 -->
<g id="edge7_Node000007_Node000008" class="edge">
<title>Node7&#45;&gt;Node8</title>
<g id="a_edge7_Node000007_Node000008"><a xlink:title=" ">
<path fill="none" stroke="#63b8ff" d="M154.85,-208.24C154.05,-208.89 153.26,-209.56 152.5,-210.25 125.38,-234.79 142.89,-258.92 116.5,-284.25 112.82,-287.78 108.57,-290.86 104.07,-293.53"/>
<polygon fill="#63b8ff" stroke="#63b8ff" points="156.54,-211.32 162.83,-202.8 152.6,-205.54 156.54,-211.32"/>
</a>
</g>
</g>
<!-- Node9 -->
<g id="Node000009" class="node">
<title>Node9</title>
<g id="a_Node000009"><a xlink:href="classreactesp_1_1_delay_event.html#a62687321b5a603131eb6ddd85f2ed2e2" target="_top" xlink:title="Construct a new Delay Event object.">
<polygon fill="white" stroke="#666666" points="113.5,-275.5 3,-275.5 3,-245 113.5,-245 113.5,-275.5"/>
<text xml:space="preserve" text-anchor="start" x="11" y="-262" font-family="Helvetica,sans-Serif" font-size="10.00">reactesp::DelayEvent</text>
<text xml:space="preserve" text-anchor="middle" x="58.25" y="-250.75" font-family="Helvetica,sans-Serif" font-size="10.00">::DelayEvent</text>
</a>
</g>
</g>
<!-- Node7&#45;&gt;Node9 -->
<g id="edge8_Node000007_Node000009" class="edge">
<title>Node7&#45;&gt;Node9</title>
<g id="a_edge8_Node000007_Node000009"><a xlink:title=" ">
<path fill="none" stroke="#63b8ff" d="M160.3,-206.42C157.64,-207.66 155.03,-208.94 152.5,-210.25 135.22,-219.25 133.51,-225.75 116.5,-235.25 110.63,-238.53 104.24,-241.69 97.94,-244.59"/>
<polygon fill="#63b8ff" stroke="#63b8ff" points="161.59,-209.68 169.36,-202.49 158.8,-203.26 161.59,-209.68"/>
</a>
</g>
</g>
<!-- Node10 -->
<g id="Node000010" class="node">
<title>Node10</title>
<g id="a_Node000010"><a xlink:href="classreactesp_1_1_timed_event.html#abc6acc1de14d767c7c9f9b178154ff3e" target="_top" xlink:title=" ">
<polygon fill="white" stroke="#666666" points="114.25,-226.5 2.25,-226.5 2.25,-196 114.25,-196 114.25,-226.5"/>
<text xml:space="preserve" text-anchor="start" x="10.25" y="-213" font-family="Helvetica,sans-Serif" font-size="10.00">reactesp::TimedEvent</text>
<text xml:space="preserve" text-anchor="middle" x="58.25" y="-201.75" font-family="Helvetica,sans-Serif" font-size="10.00">::operator&lt;</text>
</a>
</g>
</g>
<!-- Node7&#45;&gt;Node10 -->
<g id="edge9_Node000007_Node000010" class="edge">
<title>Node7&#45;&gt;Node10</title>
<g id="a_edge9_Node000007_Node000010"><a xlink:title=" ">
<path fill="none" stroke="#63b8ff" d="M151.2,-196.74C139.02,-198.66 126.42,-200.65 114.61,-202.51"/>
<polygon fill="#63b8ff" stroke="#63b8ff" points="151.41,-200.25 160.74,-195.23 150.31,-193.33 151.41,-200.25"/>
</a>
</g>
</g>
<!-- Node11 -->
<g id="Node000011" class="node">
<title>Node11</title>
<g id="a_Node000011"><a xlink:href="classreactesp_1_1_repeat_event.html#a151b2247cbe0b78ef85f41f1013c18ef" target="_top" xlink:title="Construct a new Repeat Event object.">
<polygon fill="white" stroke="#666666" points="116.5,-177.5 0,-177.5 0,-147 116.5,-147 116.5,-177.5"/>
<text xml:space="preserve" text-anchor="start" x="8" y="-164" font-family="Helvetica,sans-Serif" font-size="10.00">reactesp::RepeatEvent</text>
<text xml:space="preserve" text-anchor="middle" x="58.25" y="-152.75" font-family="Helvetica,sans-Serif" font-size="10.00">::RepeatEvent</text>
</a>
</g>
</g>
<!-- Node7&#45;&gt;Node11 -->
<g id="edge10_Node000007_Node000011" class="edge">
<title>Node7&#45;&gt;Node11</title>
<g id="a_edge10_Node000007_Node000011"><a xlink:title=" ">
<path fill="none" stroke="#63b8ff" d="M151,-176.15C139.62,-174.43 127.88,-172.65 116.76,-170.96"/>
<polygon fill="#63b8ff" stroke="#63b8ff" points="150.33,-179.59 160.74,-177.63 151.37,-172.67 150.33,-179.59"/>
</a>
</g>
</g>
<!-- Node12 -->
<g id="Node000012" class="node">
<title>Node12</title>
<g id="a_Node000012"><a xlink:href="classreactesp_1_1_repeat_event.html#a81e588a911adac3974fd93badd1ed853" target="_top" xlink:title="Construct a new Repeat Event object.">
<polygon fill="white" stroke="#666666" points="116.5,-128.5 0,-128.5 0,-98 116.5,-98 116.5,-128.5"/>
<text xml:space="preserve" text-anchor="start" x="8" y="-115" font-family="Helvetica,sans-Serif" font-size="10.00">reactesp::RepeatEvent</text>
<text xml:space="preserve" text-anchor="middle" x="58.25" y="-103.75" font-family="Helvetica,sans-Serif" font-size="10.00">::RepeatEvent</text>
</a>
</g>
</g>
<!-- Node7&#45;&gt;Node12 -->
<g id="edge11_Node000007_Node000012" class="edge">
<title>Node7&#45;&gt;Node12</title>
<g id="a_edge11_Node000007_Node000012"><a xlink:title=" ">
<path fill="none" stroke="#63b8ff" d="M162.73,-166.11C159.23,-164.54 155.8,-162.91 152.5,-161.25 135.55,-152.69 133.25,-147.19 116.5,-138.25 110.47,-135.03 103.94,-131.89 97.53,-128.97"/>
<polygon fill="#63b8ff" stroke="#63b8ff" points="161.35,-169.32 171.92,-170.03 164.1,-162.88 161.35,-169.32"/>
</a>
</g>
</g>
<!-- Node15 -->
<g id="Node000015" class="node">
<title>Node15</title>
<g id="a_Node000015"><a xlink:href="classreactesp_1_1_stream_event.html#aa50251e1749227dc56fbeaada0820fc8" target="_top" xlink:title="Construct a new Stream Event object.">
<polygon fill="white" stroke="#666666" points="116.5,-79.5 0,-79.5 0,-49 116.5,-49 116.5,-79.5"/>
<text xml:space="preserve" text-anchor="start" x="8" y="-66" font-family="Helvetica,sans-Serif" font-size="10.00">reactesp::StreamEvent</text>
<text xml:space="preserve" text-anchor="middle" x="58.25" y="-54.75" font-family="Helvetica,sans-Serif" font-size="10.00">::StreamEvent</text>
</a>
</g>
</g>
<!-- Node14&#45;&gt;Node15 -->
<g id="edge14_Node000014_Node000015" class="edge">
<title>Node14&#45;&gt;Node15</title>
<g id="a_edge14_Node000014_Node000015"><a xlink:title=" ">
<path fill="none" stroke="#63b8ff" d="M145.94,-64.25C136.18,-64.25 126.27,-64.25 116.8,-64.25"/>
<polygon fill="#63b8ff" stroke="#63b8ff" points="145.78,-67.75 155.78,-64.25 145.78,-60.75 145.78,-67.75"/>
</a>
</g>
</g>
<!-- Node16 -->
<g id="Node000016" class="node">
<title>Node16</title>
<g id="a_Node000016"><a xlink:href="classreactesp_1_1_tick_event.html#a4ec139a9ddfc5183a3e3b1e648dd39ba" target="_top" xlink:title="Construct a new Tick Event object.">
<polygon fill="white" stroke="#666666" points="110.12,-30.5 6.38,-30.5 6.38,0 110.12,0 110.12,-30.5"/>
<text xml:space="preserve" text-anchor="start" x="14.38" y="-17" font-family="Helvetica,sans-Serif" font-size="10.00">reactesp::TickEvent</text>
<text xml:space="preserve" text-anchor="middle" x="58.25" y="-5.75" font-family="Helvetica,sans-Serif" font-size="10.00">::TickEvent</text>
</a>
</g>
</g>
<!-- Node14&#45;&gt;Node16 -->
<g id="edge15_Node000014_Node000016" class="edge">
<title>Node14&#45;&gt;Node16</title>
<g id="a_edge15_Node000014_Node000016"><a xlink:title=" ">
<path fill="none" stroke="#63b8ff" d="M156.18,-45.24C140.95,-40.53 124.8,-35.53 110.13,-30.99"/>
<polygon fill="#63b8ff" stroke="#63b8ff" points="155.05,-48.55 165.63,-48.16 157.11,-41.86 155.05,-48.55"/>
</a>
</g>
</g>
</g>
</svg>
</svg>

<style type='text/css'>
<![CDATA[
[data-mouse-over-selected='false'] { opacity: 0.7; }
[data-mouse-over-selected='true']  { opacity: 1.0; }
]]>
</style>
<script type="application/ecmascript"><![CDATA[
document.addEventListener('DOMContentLoaded', (event) => {
  highlightEdges();
  highlightAdjacentNodes();
});
]]></script>
</svg>
