<?xml version="1.0" encoding="UTF-8" standalone="no"?>
<!DOCTYPE svg PUBLIC "-//W3C//DTD SVG 1.1//EN"
 "http://www.w3.org/Graphics/SVG/1.1/DTD/svg11.dtd">
<!-- Generated by graphviz version 14.1.4 (20260321.0153)
 -->
<!-- Title: src/events.h Pages: 1 -->
<svg width="258pt" height="83pt"
 viewBox="0.00 0.00 258.00 83.00" xmlns="http://www.w3.org/2000/svg" xmlns:xlink="http://www.w3.org/1999/xlink">

<svg id="main" version="1.1" xmlns="http://www.w3.org/2000/svg" xmlns:xlink="http://www.w3.org/1999/xlink" xml:space="preserve">

<style type="text/css"><![CDATA[
.node, .edge {opacity: 0.7;}
.node.selected, .edge.selected {opacity: 1;}
.edge:hover path { stroke: red; }
.edge:hover polygon { stroke: red; fill: red; }
]]></style>
<script type="application/ecmascript" xlink:href="svg.min.js"/>
<svg id="graph" class="graph">
<g id="graph0" class="graph" transform="scale(1 1) rotate(0) translate(4 78.5)">
<title>src/events.h</title>
<!-- Node1 -->
<g id="Node000001" class="node">
<title>Node1</title>
<g id="a_Node000001"><a xlink:title=" ">
<polygon fill="#999999" stroke="#666666" points="175.62,-74.5 105.62,-74.5 105.62,-55.25 175.62,-55.25 175.62,-74.5"/>
<text xml:space="preserve" text-anchor="middle" x="140.62" y="-61" font-family="Helvetica,sans-Serif" font-size="10.00">src/events.h</text>
</a>
</g>
</g>
<!-- Node2 -->
<g id="Node000002" class="node">
<title>Node2</title>
<g id="a_Node000002"><a xlink:title=" ">
<polygon fill="#e0e0e0" stroke="#999999" points="57.25,-19.25 0,-19.25 0,0 57.25,0 57.25,-19.25"/>
<text xml:space="preserve" text-anchor="middle" x="28.62" y="-5.75" font-family="Helvetica,sans-Serif" font-size="10.00">Arduino.h</text>
</a>
</g>
</g>
<!-- Node1&#45;&gt;Node2 -->
<g id="edge1_Node000001_Node000002" class="edge">
<title>Node1&#45;&gt;Node2</title>
<g id="a_edge1_Node000001_Node000002"><a xlink:title=" ">
<path fill="none" stroke="#63b8ff" d="M121.63,-54.84C104.17,-46.54 78.03,-34.11 57.9,-24.54"/>
<polygon fill="#63b8ff" stroke="#63b8ff" points="59.62,-21.49 49.08,-20.35 56.61,-27.81 59.62,-21.49"/>
</a>
</g>
</g>
<!-- Node3 -->
<g id="Node000003" class="node">
<title>Node3</title>
<g id="a_Node000003"><a xlink:title=" ">
<polygon fill="#e0e0e0" stroke="#999999" points="133.62,-19.25 75.62,-19.25 75.62,0 133.62,0 133.62,-19.25"/>
<text xml:space="preserve" text-anchor="middle" x="104.62" y="-5.75" font-family="Helvetica,sans-Serif" font-size="10.00">functional</text>
</a>
</g>
</g>
<!-- Node1&#45;&gt;Node3 -->
<g id="edge2_Node000001_Node000003" class="edge">
<title>Node1&#45;&gt;Node3</title>
<g id="a_edge2_Node000001_Node000003"><a xlink:title=" ">
<path fill="none" stroke="#63b8ff" d="M134.68,-55.08C129.91,-48.03 123.06,-37.9 117.1,-29.08"/>
<polygon fill="#63b8ff" stroke="#63b8ff" points="120.05,-27.19 111.55,-20.86 114.25,-31.11 120.05,-27.19"/>
</a>
</g>
</g>
<!-- Node4 -->
<g id="Node000004" class="node">
<title>Node4</title>
<g id="a_Node000004"><a xlink:title=" ">
<polygon fill="#e0e0e0" stroke="#999999" points="203.25,-19.25 152,-19.25 152,0 203.25,0 203.25,-19.25"/>
<text xml:space="preserve" text-anchor="middle" x="177.62" y="-5.75" font-family="Helvetica,sans-Serif" font-size="10.00">memory</text>
</a>
</g>
</g>
<!-- Node1&#45;&gt;Node4 -->
<g id="edge3_Node000001_Node000004" class="edge">
<title>Node1&#45;&gt;Node4</title>
<g id="a_edge3_Node000001_Node000004"><a xlink:title=" ">
<path fill="none" stroke="#63b8ff" d="M146.73,-55.08C151.69,-47.96 158.83,-37.68 165,-28.8"/>
<polygon fill="#63b8ff" stroke="#63b8ff" points="167.69,-31.06 170.52,-20.85 161.94,-27.07 167.69,-31.06"/>
</a>
</g>
</g>
<!-- Node5 -->
<g id="Node000005" class="node">
<title>Node5</title>
<g id="a_Node000005"><a xlink:title=" ">
<polygon fill="#e0e0e0" stroke="#999999" points="250.38,-19.25 220.88,-19.25 220.88,0 250.38,0 250.38,-19.25"/>
<text xml:space="preserve" text-anchor="middle" x="235.62" y="-5.75" font-family="Helvetica,sans-Serif" font-size="10.00">set</text>
</a>
</g>
</g>
<!-- Node1&#45;&gt;Node5 -->
<g id="edge4_Node000001_Node000005" class="edge">
<title>Node1&#45;&gt;Node5</title>
<g id="a_edge4_Node000001_Node000005"><a xlink:title=" ">
<path fill="none" stroke="#63b8ff" d="M156.74,-54.84C171.56,-46.54 193.75,-34.1 210.83,-24.53"/>
<polygon fill="#63b8ff" stroke="#63b8ff" points="212.35,-27.68 219.36,-19.74 208.93,-21.58 212.35,-27.68"/>
</a>
</g>
</g>
</g>
</svg>
</svg>

<style type='text/css'>
<![CDATA[
[data-mouse-over-selected='false'] { opacity: 0.7; }
[data-mouse-over-selected='true']  { opacity: 1.0; }
]]>
</style>
<script type="application/ecmascript"><![CDATA[
document.addEventListener('DOMContentLoaded', (event) => {
  highlightEdges();
  highlightAdjacentNodes();
});
]]></script>
</svg>
