<?xml version="1.0" encoding="UTF-8" standalone="no"?>
<!DOCTYPE svg PUBLIC "-//W3C//DTD SVG 1.1//EN"
 "http://www.w3.org/Graphics/SVG/1.1/DTD/svg11.dtd">
<!-- Generated by graphviz version 14.1.5 (20260411.2331)
 -->
<!-- Title: src/event_loop.h Pages: 1 -->
<svg width="258pt" height="138pt"
 viewBox="0.00 0.00 258.00 138.00" xmlns="http://www.w3.org/2000/svg" xmlns:xlink="http://www.w3.org/1999/xlink">

<svg id="main" version="1.1" xmlns="http://www.w3.org/2000/svg" xmlns:xlink="http://www.w3.org/1999/xlink" xml:space="preserve">

<style type="text/css"><![CDATA[
.node, .edge {opacity: 0.7;}
.node.selected, .edge.selected {opacity: 1;}
.edge:hover path { stroke: red; }
.edge:hover polygon { stroke: red; fill: red; }
]]></style>
<script type="application/ecmascript" xlink:href="svg.min.js"/>
<svg id="graph" class="graph">
<g id="graph0" class="graph" transform="scale(1 1) rotate(0) translate(4 133.75)">
<title>src/event_loop.h</title>
<!-- Node1 -->
<g id="Node000001" class="node">
<title>Node1</title>
<g id="a_Node000001"><a xlink:title=" ">
<polygon fill="#999999" stroke="#666666" points="108.75,-129.75 20.75,-129.75 20.75,-110.5 108.75,-110.5 108.75,-129.75"/>
<text xml:space="preserve" text-anchor="middle" x="64.75" y="-116.25" font-family="Helvetica,sans-Serif" font-size="10.00">src/event_loop.h</text>
</a>
</g>
</g>
<!-- Node2 -->
<g id="Node000002" class="node">
<title>Node2</title>
<g id="a_Node000002"><a xlink:title=" ">
<polygon fill="#e0e0e0" stroke="#999999" points="29.5,-19.25 0,-19.25 0,0 29.5,0 29.5,-19.25"/>
<text xml:space="preserve" text-anchor="middle" x="14.75" y="-5.75" font-family="Helvetica,sans-Serif" font-size="10.00">set</text>
</a>
</g>
</g>
<!-- Node1&#45;&gt;Node2 -->
<g id="edge1_Node000001_Node000002" class="edge">
<title>Node1&#45;&gt;Node2</title>
<g id="a_edge1_Node000001_Node000002"><a xlink:title=" ">
<path fill="none" stroke="#63b8ff" d="M57.48,-110.03C50.81,-101.33 41.05,-87.63 34.75,-74.5 27.97,-60.37 22.78,-43.4 19.39,-30.5"/>
<polygon fill="#63b8ff" stroke="#63b8ff" points="22.86,-29.94 17.06,-21.08 16.06,-31.63 22.86,-29.94"/>
</a>
</g>
</g>
<!-- Node3 -->
<g id="Node000003" class="node">
<title>Node3</title>
<g id="a_Node000003"><a xlink:title=" ">
<polygon fill="#e0e0e0" stroke="#999999" points="86.25,-74.5 43.25,-74.5 43.25,-55.25 86.25,-55.25 86.25,-74.5"/>
<text xml:space="preserve" text-anchor="middle" x="64.75" y="-61" font-family="Helvetica,sans-Serif" font-size="10.00">vector</text>
</a>
</g>
</g>
<!-- Node1&#45;&gt;Node3 -->
<g id="edge2_Node000001_Node000003" class="edge">
<title>Node1&#45;&gt;Node3</title>
<g id="a_edge2_Node000001_Node000003"><a xlink:title=" ">
<path fill="none" stroke="#63b8ff" d="M64.75,-110.33C64.75,-103.82 64.75,-94.67 64.75,-86.37"/>
<polygon fill="#63b8ff" stroke="#63b8ff" points="68.25,-86.37 64.75,-76.37 61.25,-86.37 68.25,-86.37"/>
</a>
</g>
</g>
<!-- Node4 -->
<g id="Node000004" class="node">
<title>Node4</title>
<g id="a_Node000004"><a xlink:href="events_8h.html" target="_top" xlink:title=" ">
<polygon fill="white" stroke="#666666" points="157.5,-74.5 104,-74.5 104,-55.25 157.5,-55.25 157.5,-74.5"/>
<text xml:space="preserve" text-anchor="middle" x="130.75" y="-61" font-family="Helvetica,sans-Serif" font-size="10.00">events.h</text>
</a>
</g>
</g>
<!-- Node1&#45;&gt;Node4 -->
<g id="edge3_Node000001_Node000004" class="edge">
<title>Node1&#45;&gt;Node4</title>
<g id="a_edge3_Node000001_Node000004"><a xlink:title=" ">
<path fill="none" stroke="#63b8ff" d="M75.95,-110.09C85.49,-102.4 99.42,-91.15 110.86,-81.93"/>
<polygon fill="#63b8ff" stroke="#63b8ff" points="112.96,-84.73 118.54,-75.73 108.56,-79.28 112.96,-84.73"/>
</a>
</g>
</g>
<!-- Node4&#45;&gt;Node2 -->
<g id="edge7_Node000004_Node000002" class="edge">
<title>Node4&#45;&gt;Node2</title>
<g id="a_edge7_Node000004_Node000002"><a xlink:title=" ">
<path fill="none" stroke="#63b8ff" d="M111.07,-54.84C91.48,-45.85 61.32,-32 39.97,-22.2"/>
<polygon fill="#63b8ff" stroke="#63b8ff" points="41.64,-19.12 31.09,-18.13 38.72,-25.48 41.64,-19.12"/>
</a>
</g>
</g>
<!-- Node5 -->
<g id="Node000005" class="node">
<title>Node5</title>
<g id="a_Node000005"><a xlink:title=" ">
<polygon fill="#e0e0e0" stroke="#999999" points="104.38,-19.25 47.12,-19.25 47.12,0 104.38,0 104.38,-19.25"/>
<text xml:space="preserve" text-anchor="middle" x="75.75" y="-5.75" font-family="Helvetica,sans-Serif" font-size="10.00">Arduino.h</text>
</a>
</g>
</g>
<!-- Node4&#45;&gt;Node5 -->
<g id="edge4_Node000004_Node000005" class="edge">
<title>Node4&#45;&gt;Node5</title>
<g id="a_edge4_Node000004_Node000005"><a xlink:title=" ">
<path fill="none" stroke="#63b8ff" d="M121.67,-55.08C113.91,-47.57 102.54,-36.56 93.05,-27.38"/>
<polygon fill="#63b8ff" stroke="#63b8ff" points="95.74,-25.1 86.12,-20.66 90.87,-30.13 95.74,-25.1"/>
</a>
</g>
</g>
<!-- Node6 -->
<g id="Node000006" class="node">
<title>Node6</title>
<g id="a_Node000006"><a xlink:title=" ">
<polygon fill="#e0e0e0" stroke="#999999" points="180.75,-19.25 122.75,-19.25 122.75,0 180.75,0 180.75,-19.25"/>
<text xml:space="preserve" text-anchor="middle" x="151.75" y="-5.75" font-family="Helvetica,sans-Serif" font-size="10.00">functional</text>
</a>
</g>
</g>
<!-- Node4&#45;&gt;Node6 -->
<g id="edge5_Node000004_Node000006" class="edge">
<title>Node4&#45;&gt;Node6</title>
<g id="a_edge5_Node000004_Node000006"><a xlink:title=" ">
<path fill="none" stroke="#63b8ff" d="M134.22,-55.08C136.88,-48.34 140.65,-38.77 144.01,-30.24"/>
<polygon fill="#63b8ff" stroke="#63b8ff" points="147.24,-31.6 147.65,-21.02 140.73,-29.04 147.24,-31.6"/>
</a>
</g>
</g>
<!-- Node7 -->
<g id="Node000007" class="node">
<title>Node7</title>
<g id="a_Node000007"><a xlink:title=" ">
<polygon fill="#e0e0e0" stroke="#999999" points="250.38,-19.25 199.12,-19.25 199.12,0 250.38,0 250.38,-19.25"/>
<text xml:space="preserve" text-anchor="middle" x="224.75" y="-5.75" font-family="Helvetica,sans-Serif" font-size="10.00">memory</text>
</a>
</g>
</g>
<!-- Node4&#45;&gt;Node7 -->
<g id="edge6_Node000004_Node000007" class="edge">
<title>Node4&#45;&gt;Node7</title>
<g id="a_edge6_Node000004_Node000007"><a xlink:title=" ">
<path fill="none" stroke="#63b8ff" d="M146.7,-54.84C161.01,-46.73 182.28,-34.68 199,-25.21"/>
<polygon fill="#63b8ff" stroke="#63b8ff" points="200.43,-28.42 207.41,-20.45 196.98,-22.33 200.43,-28.42"/>
</a>
</g>
</g>
</g>
</svg>
</svg>

<style type='text/css'>
<![CDATA[
[data-mouse-over-selected='false'] { opacity: 0.7; }
[data-mouse-over-selected='true']  { opacity: 1.0; }
]]>
</style>
<script type="application/ecmascript"><![CDATA[
document.addEventListener('DOMContentLoaded', (event) => {
  highlightEdges();
  highlightAdjacentNodes();
});
]]></script>
</svg>
